<!--?xml version="1.0" encoding="utf-8"?-->
<!-- Svg Vector Icons : http://www.onlinewebfonts.com/icon -->

<svg version="1.1" xmlns="http://www.w3.org/2000/svg" xmlns:xlink="http://www.w3.org/1999/xlink" x="0px" y="0px" viewBox="0 0 256 256" enable-background="new 0 0 256 256" xml:space="preserve">
<metadata> Svg Vector Icons : http://www.onlinewebfonts.com/icon </metadata>
<g><g><g><path fill="#6598c5" data-title="Layer 0" xs="0" d="M33.7,14.4C22.4,17.4,13,26.9,10.8,37.7c-1,4.8-1,132.4,0,137.3c1.9,9,9.1,17.8,17.9,21.7c5.2,2.3,8.2,2.7,20.4,2.9l11.6,0.3l-9.8,21.3c-5.4,11.7-9.7,21.3-9.5,21.3c0.1,0,10.5-9.6,23.1-21.4l22.8-21.4l63.3,0c41.7,0,64.7-0.2,67.3-0.5c7.9-1,13.4-3.6,19.2-9.4c4.3-4.2,7.1-9.3,8.2-14.7c1-4.8,1-132.4,0-137.3c-2.3-10.9-11.6-20.4-23.1-23.3c-3.5-0.9-5.5-0.9-94.3-0.9C40.1,13.6,36.9,13.6,33.7,14.4z M140.7,51.9c9,3.1,15.9,9.7,18.7,17.8c1.4,4.1,1.7,10.2,0.7,14.7c-1.6,7.5-4.2,11.1-15.9,21.6c-12.2,10.9-14.2,13.8-15.4,22c-0.4,2.5-0.7,5.5-0.7,6.5v2h-2.3c-2.3,0-2.3,0-2.3-1.5c0-3.7,1-12.8,1.7-15.5c1.3-5,2.5-7.3,8.7-15.4c8.8-11.6,11.3-17.7,11.3-27c0-9.1-4.1-16.2-11.4-19.6c-2.4-1.1-3.2-1.2-8-1.2c-4.4,0-5.8,0.2-7.9,1.1c-5,2-8.8,6.7-7.8,9.4c0.2,0.6,1.7,2.2,3.2,3.5c4.3,3.8,5.6,7.4,4,11.4c-1.5,3.5-4.2,5.2-8.4,5.2c-6.2,0-10.4-4.3-11.1-11.3c-0.5-5.4,1.4-10.3,5.9-15.1c3.2-3.5,6.6-5.8,10.7-7.5c4.9-2,7.8-2.4,15.5-2.3C136.2,50.7,137.4,50.8,140.7,51.9z M129.1,144.4c2.3,0.6,5.6,3.7,6.3,5.8c1.4,4.2-0.3,9.1-4,11.7c-2.4,1.6-7.1,1.8-9.7,0.6c-2-1.1-4.6-3.7-5.3-5.5c-0.6-1.7-0.5-5.5,0.2-7.2C118.6,145.3,124,143,129.1,144.4z"/></g></g></g>
</svg>