<svg xmlns="http://www.w3.org/2000/svg" data-name="Layer 1" viewBox="0 0 512 512" id="policies"><path fill="#ededed" d="M390.5 7.5h-269a29.998 29.998 0 0 0-30 30v412.71l-15 54.29h314a30.005 30.005 0 0 0 30-30v-437a30.005 30.005 0 0 0-30-30Z"></path><path fill="#e1e1e3" d="M390.5 7.5h-45a30.005 30.005 0 0 1 30 30v437a30.005 30.005 0 0 1-30 30h45a30.005 30.005 0 0 0 30-30v-437a30.005 30.005 0 0 0-30-30Z"></path><path fill="#c8c5cc" d="M389 504.5H73.5a29.998 29.998 0 0 1-30-30v-40h313l1 2V473a31.496 31.496 0 0 0 31.5 31.5zm2.5 0H389c.83 0 1.64-.03 2.45-.09z"></path><path fill="#fff" d="M336.5 290h-176a7.5 7.5 0 0 1 0-15h176a7.5 7.5 0 0 1 0 15zm-120 90h-56a7.5 7.5 0 0 1 0-15h56a7.5 7.5 0 0 1 0 15zm135-45h-191a7.5 7.5 0 0 1 0-15h191a7.5 7.5 0 0 1 0 15z"></path><path fill="#dadadc" d="M420.5 154.1v63.64L285.38 352.86a26.333 26.333 0 0 1-37.24 0l-13.2-13.2Z"></path><path fill="#eb304a" d="M500.11 123.13 266.76 356.48l-31.82-31.82L468.29 91.31a14.992 14.992 0 0 1 21.21 0l10.61 10.61a15.01 15.01 0 0 1 0 21.21Z"></path><path fill="#e4222e" d="M500.11 101.92 489.5 91.31a14.989 14.989 0 0 0-18.107-2.368 14.976 14.976 0 0 1 3.107 2.368l10.61 10.61a15.01 15.01 0 0 1 0 21.21L259.26 348.98l7.5 7.5 233.35-233.35a15.01 15.01 0 0 0 0-21.21Z"></path><path fill="#fdd8ae" d="m266.76 356.48-47.73 15.91 15.91-47.73 31.82 31.82z"></path><path fill="#fbbf7d" d="m258.802 348.522-35.793 11.931-3.979 11.937 47.73-15.91-7.958-7.958z"></path><path fill="#fddd5a" d="M500.11 123.13 477.24 146l-31.82-31.82 22.87-22.87a14.992 14.992 0 0 1 21.21 0l10.61 10.61a15.01 15.01 0 0 1 0 21.21Z"></path><path fill="#fed030" d="M500.11 101.92 489.5 91.31a14.989 14.989 0 0 0-18.107-2.368 14.976 14.976 0 0 1 3.107 2.368l10.61 10.61a15.01 15.01 0 0 1 0 21.21l-15.37 15.37 7.5 7.5 22.87-22.87a15.01 15.01 0 0 0 0-21.21Z"></path><path fill="#fff" d="M351.5 80h-191a7.5 7.5 0 0 1 0-15h191a7.5 7.5 0 0 1 0 15zm0 45h-191a7.5 7.5 0 0 1 0-15h191a7.5 7.5 0 0 1 0 15zm0 45h-191a7.5 7.5 0 0 1 0-15h191a7.5 7.5 0 0 1 0 15z"></path></svg>